<svg xmlns="http://www.w3.org/2000/svg" width="21.992" height="15.94" viewBox="0 0 21.992 15.94">
  <g id="Group_56" data-name="Group 56" transform="translate(-134.297 -695.53)">
    <g id="Arrow" transform="translate(407.411 1126.758) rotate(180)">
      <path id="Path_3" data-name="Path 3" d="M-208.346,1228.719h-19.578a1,1,0,0,1-1-1,1,1,0,0,1,1-1h19.578a1,1,0,0,1,1,1A1,1,0,0,1-208.346,1228.719Z" transform="translate(480.046 -804.462)" fill="#fff"/>
      <path id="Path_5" data-name="Path 5" d="M9.272,1H0A1,1,0,0,1-1,0,1,1,0,0,1,0-1H9.272a1,1,0,0,1,1,1A1,1,0,0,1,9.272,1Z" transform="translate(265.144 429.814) rotate(-45)" fill="#fff"/>
      <path id="Path_6" data-name="Path 6" d="M9.272,1H0A1,1,0,0,1-1,0,1,1,0,0,1,0-1H9.272a1,1,0,0,1,1,1A1,1,0,0,1,9.272,1Z" transform="translate(265.144 416.702) rotate(45)" fill="#fff"/>
    </g>
  </g>
</svg>
