<svg xmlns="http://www.w3.org/2000/svg" width="30.88" height="17.646" viewBox="0 0 30.88 17.646">
  <g id="Interface_Login_Password_White" data-name="Interface Login Password White" transform="translate(0 -128.571)">
    <g id="Group_41" data-name="Group 41" transform="translate(0 128.571)">
      <path id="Rectangle_24" data-name="Rectangle 24" d="M-18.12-21.429H6.143A3.312,3.312,0,0,1,9.451-18.12V-7.091A3.312,3.312,0,0,1,6.143-3.783H-18.12a3.312,3.312,0,0,1-3.309-3.309V-18.12A3.312,3.312,0,0,1-18.12-21.429ZM6.143-5.989a1.1,1.1,0,0,0,1.1-1.1V-18.12a1.1,1.1,0,0,0-1.1-1.1H-18.12a1.1,1.1,0,0,0-1.1,1.1V-7.091a1.1,1.1,0,0,0,1.1,1.1Z" transform="translate(21.429 21.429)" fill="#fff"/>
      <path id="Ellipse_5" data-name="Ellipse 5" d="M-19.075-21.429a2.357,2.357,0,0,1,2.354,2.354,2.357,2.357,0,0,1-2.354,2.354,2.357,2.357,0,0,1-2.354-2.354A2.357,2.357,0,0,1-19.075-21.429Z" transform="translate(26.881 27.897)" fill="#fff"/>
      <path id="Ellipse_6" data-name="Ellipse 6" d="M-19.075-21.429a2.357,2.357,0,0,1,2.354,2.354,2.357,2.357,0,0,1-2.354,2.354,2.357,2.357,0,0,1-2.354-2.354A2.357,2.357,0,0,1-19.075-21.429Z" transform="translate(33.424 27.897)" fill="#fff"/>
      <path id="Line_1" data-name="Line 1" d="M-16.721-19.075h-3.531a1.177,1.177,0,0,1-1.177-1.177,1.177,1.177,0,0,1,1.177-1.177h3.531a1.177,1.177,0,0,1,1.177,1.177A1.177,1.177,0,0,1-16.721-19.075Z" transform="translate(40.99 31.259)" fill="#fff"/>
    </g>
  </g>
</svg>
