<svg id="Interface_Edit_Select_Area_Rectangle_Dash_Grey" data-name="Interface Edit Select Area Rectangle Dash Grey" xmlns="http://www.w3.org/2000/svg" width="33.143" height="33.143" viewBox="0 0 33.143 33.143">
  <g id="Group_149" data-name="Group 149" transform="translate(0 0)">
    <path id="Path_21" data-name="Path 21" d="M477.347,7.1a1.184,1.184,0,0,1-1.184-1.184V3.551a1.185,1.185,0,0,0-1.184-1.184h-2.367a1.184,1.184,0,0,1,0-2.367h2.367a3.555,3.555,0,0,1,3.551,3.551V5.918A1.184,1.184,0,0,1,477.347,7.1Z" transform="translate(-445.388 0)" fill="#dbdbdb"/>
    <path id="Path_22" data-name="Path 22" d="M1.184,7.1A1.184,1.184,0,0,1,0,5.918V3.551A3.551,3.551,0,0,1,3.551,0H5.918a1.184,1.184,0,0,1,0,2.367H3.551A1.184,1.184,0,0,0,2.367,3.551V5.918A1.184,1.184,0,0,1,1.184,7.1Z" transform="translate(0 0)" fill="#dbdbdb"/>
    <path id="Line_1" data-name="Line 1" d="M-13.143-19.061h-7.1a1.184,1.184,0,0,1-1.184-1.184,1.184,1.184,0,0,1,1.184-1.184h7.1a1.184,1.184,0,0,1,1.184,1.184A1.184,1.184,0,0,1-13.143-19.061Z" transform="translate(33.265 21.429)" fill="#dbdbdb"/>
    <path id="Line_2" data-name="Line 2" d="M-20.245-11.959a1.184,1.184,0,0,1-1.184-1.184v-7.1a1.184,1.184,0,0,1,1.184-1.184,1.184,1.184,0,0,1,1.184,1.184v7.1A1.184,1.184,0,0,1-20.245-11.959Z" transform="translate(52.204 33.265)" fill="#dbdbdb"/>
    <path id="Line_3" data-name="Line 3" d="M-20.245-11.959a1.184,1.184,0,0,1-1.184-1.184v-7.1a1.184,1.184,0,0,1,1.184-1.184,1.184,1.184,0,0,1,1.184,1.184v7.1A1.184,1.184,0,0,1-20.245-11.959Z" transform="translate(21.429 33.265)" fill="#dbdbdb"/>
    <path id="Path_23" data-name="Path 23" d="M474.98,478.531h-2.367a1.184,1.184,0,0,1,0-2.367h2.367a1.185,1.185,0,0,0,1.184-1.184v-2.367a1.184,1.184,0,0,1,2.367,0v2.367A3.555,3.555,0,0,1,474.98,478.531Z" transform="translate(-445.388 -445.388)" fill="#dbdbdb"/>
    <path id="Path_24" data-name="Path 24" d="M5.918,478.531H3.551A3.555,3.555,0,0,1,0,474.98v-2.367a1.184,1.184,0,0,1,2.367,0v2.367a1.185,1.185,0,0,0,1.184,1.184H5.918a1.184,1.184,0,0,1,0,2.367Z" transform="translate(0 -445.388)" fill="#dbdbdb"/>
    <path id="Line_4" data-name="Line 4" d="M-13.143-19.061h-7.1a1.184,1.184,0,0,1-1.184-1.184,1.184,1.184,0,0,1,1.184-1.184h7.1a1.184,1.184,0,0,1,1.184,1.184A1.184,1.184,0,0,1-13.143-19.061Z" transform="translate(33.265 52.204)" fill="#dbdbdb"/>
  </g>
</svg>
