<svg xmlns="http://www.w3.org/2000/svg" viewBox="0 0 600 600"><g transform="matrix(42.857142857142854,0,0,42.857142857142854,0,0)"><g><path d="M11.5.5h1a1,1,0,0,1,1,1v1" fill="none" stroke="#000000" stroke-linecap="round" stroke-linejoin="round"></path><path d="M.5,2.5v-1a1,1,0,0,1,1-1h1" fill="none" stroke="#000000" stroke-linecap="round" stroke-linejoin="round"></path><line x1="5.5" y1="0.5" x2="8.5" y2="0.5" fill="none" stroke="#000000" stroke-linecap="round" stroke-linejoin="round"></line><line x1="13.5" y1="5.5" x2="13.5" y2="8.5" fill="none" stroke="#000000" stroke-linecap="round" stroke-linejoin="round"></line><line x1="0.5" y1="5.5" x2="0.5" y2="8.5" fill="none" stroke="#000000" stroke-linecap="round" stroke-linejoin="round"></line><path d="M11.5,13.5h1a1,1,0,0,0,1-1v-1" fill="none" stroke="#000000" stroke-linecap="round" stroke-linejoin="round"></path><path d="M.5,11.5v1a1,1,0,0,0,1,1h1" fill="none" stroke="#000000" stroke-linecap="round" stroke-linejoin="round"></path><line x1="5.5" y1="13.5" x2="8.5" y2="13.5" fill="none" stroke="#000000" stroke-linecap="round" stroke-linejoin="round"></line></g></g></svg>