<svg id="Interface_Edit_View_White" data-name="Interface Edit View White" xmlns="http://www.w3.org/2000/svg" width="22.082" height="14.219" viewBox="0 0 22.082 14.219">
  <g id="Group_45" data-name="Group 45">
    <path id="Path_7" data-name="Path 7" d="M11.538,107.143c4.61,0,8.508,3.454,10.421,5.513a2.366,2.366,0,0,1,.008,3.184c-1.921,2.067-5.819,5.522-10.429,5.522s-8.508-3.454-10.421-5.513a2.366,2.366,0,0,1-.008-3.184C3.03,110.6,6.928,107.143,11.538,107.143Zm0,12.639c4.011,0,7.526-3.138,9.264-5.009a.785.785,0,0,0-.008-1.05c-1.73-1.862-5.245-5-9.256-5s-7.526,3.138-9.264,5.009a.785.785,0,0,0,.008,1.05C4.013,116.644,7.527,119.782,11.538,119.782Z" transform="translate(-0.497 -107.143)" fill="#fff"/>
    <path id="Ellipse_5" data-name="Ellipse 5" d="M-17.479-21.429a3.954,3.954,0,0,1,3.95,3.95,3.954,3.954,0,0,1-3.95,3.95,3.954,3.954,0,0,1-3.95-3.95A3.954,3.954,0,0,1-17.479-21.429Zm0,6.32a2.373,2.373,0,0,0,2.37-2.37,2.373,2.373,0,0,0-2.37-2.37,2.373,2.373,0,0,0-2.37,2.37A2.373,2.373,0,0,0-17.479-15.109Z" transform="translate(28.52 24.588)" fill="#fff"/>
  </g>
</svg>
