<svg xmlns="http://www.w3.org/2000/svg" width="30.971" height="30.971" viewBox="0 0 30.971 30.971">
  <g id="Interface_Search_Blue" data-name="Interface Search Blue" transform="translate(0 0)">
    <g id="Group_100" data-name="Group 100" transform="translate(0 0)">
      <path id="Ellipse_34" data-name="Ellipse 34" d="M-8.332-21.429a13.111,13.111,0,0,1,13.1,13.1,13.111,13.111,0,0,1-13.1,13.1,13.111,13.111,0,0,1-13.1-13.1A13.111,13.111,0,0,1-8.332-21.429Zm0,23.98A10.9,10.9,0,0,0,2.552-8.332,10.9,10.9,0,0,0-8.332-19.216,10.9,10.9,0,0,0-19.216-8.332,10.9,10.9,0,0,0-8.332,2.552Z" transform="translate(21.429 21.429)" fill="#5186cb"/>
      <path id="Line_1" data-name="Line 1" d="M-12.027-10.921a1.1,1.1,0,0,1-.782-.324l-8.3-8.3a1.106,1.106,0,0,1,0-1.564,1.106,1.106,0,0,1,1.564,0l8.3,8.3a1.106,1.106,0,0,1,0,1.564A1.1,1.1,0,0,1-12.027-10.921Z" transform="translate(41.892 41.892)" fill="#5186cb"/>
    </g>
  </g>
</svg>
