<svg xmlns="http://www.w3.org/2000/svg" viewBox="0 0 600 600">
  
<g transform="matrix(42.857142857142854,0,0,42.857142857142854,0,0)"><g>
    <path d="M7.36,13.43h0a1,1,0,0,1-.72,0h0a9.67,9.67,0,0,1-6.14-9V1.5a1,1,0,0,1,1-1h11a1,1,0,0,1,1,1V4.42A9.67,9.67,0,0,1,7.36,13.43Z" style="fill: none;stroke: #000000;stroke-linecap: round;stroke-linejoin: round"></path>
    <circle cx="7" cy="5.5" r="2.5" style="fill: none;stroke: #000000;stroke-linecap: round;stroke-linejoin: round"></circle>
    <path d="M3.25,11.19a5,5,0,0,1,7.5,0" style="fill: none;stroke: #000000;stroke-linecap: round;stroke-linejoin: round"></path>
  </g></g></svg>