<svg id="Interface_File_Double_White" data-name="Interface File Double White" xmlns="http://www.w3.org/2000/svg" width="17.143" height="20" viewBox="0 0 17.143 20">
  <g id="Group_105" data-name="Group 105">
    <path id="Path_13" data-name="Path 13" d="M161.429,16.429h-9.286A2.145,2.145,0,0,1,150,14.286V2.143A2.145,2.145,0,0,1,152.143,0h6.429a.714.714,0,0,1,.505.209l4.286,4.286a.714.714,0,0,1,.209.505v9.286A2.145,2.145,0,0,1,161.429,16.429Zm-9.286-15a.715.715,0,0,0-.714.714V14.286a.715.715,0,0,0,.714.714h9.286a.715.715,0,0,0,.714-.714V5.3l-3.867-3.867Z" transform="translate(-146.429 0)" fill="#fff"/>
    <path id="Path_14" data-name="Path 14" d="M55,144.286H45a2.145,2.145,0,0,1-2.143-2.143V129.286a.714.714,0,0,1,1.429,0v12.857a.715.715,0,0,0,.714.714H55a.714.714,0,1,1,0,1.429Z" transform="translate(-42.857 -124.286)" fill="#fff"/>
  </g>
</svg>
