<svg xmlns="http://www.w3.org/2000/svg" width="26.716" height="28.771" viewBox="0 0 26.716 28.771">
  <g id="Interface_Delete_Bin_2_Grey" data-name="Interface Delete Bin 2 Grey" transform="translate(-21.429 0)">
    <g id="Group_74" data-name="Group 74" transform="translate(21.429 0)">
      <path id="Line_1" data-name="Line 1" d="M4.26-19.374H-20.4A1.028,1.028,0,0,1-21.429-20.4,1.028,1.028,0,0,1-20.4-21.429H4.26A1.028,1.028,0,0,1,5.287-20.4,1.028,1.028,0,0,1,4.26-19.374Z" transform="translate(21.429 27.594)" fill="#dbdbdb"/>
      <path id="Path_7" data-name="Path 7" d="M86.742,128.571h18.5a1.028,1.028,0,0,1,1.028,1.028v18.5a3.086,3.086,0,0,1-3.083,3.083H88.8a3.086,3.086,0,0,1-3.083-3.083V129.6A1.028,1.028,0,0,1,86.742,128.571Zm17.468,2.055H87.769v17.468a1.029,1.029,0,0,0,1.028,1.028h14.385a1.029,1.029,0,0,0,1.028-1.028Z" transform="translate(-82.632 -122.406)" fill="#dbdbdb"/>
      <path id="Path_8" data-name="Path 8" d="M182.731,8.22A1.028,1.028,0,0,1,181.7,7.193V6.165a4.11,4.11,0,0,0-8.22,0V7.193a1.028,1.028,0,1,1-2.055,0V6.165a6.165,6.165,0,1,1,12.33,0V7.193A1.028,1.028,0,0,1,182.731,8.22Z" transform="translate(-164.236 0)" fill="#dbdbdb"/>
      <path id="Line_2" data-name="Line 2" d="M-20.4-8.071A1.028,1.028,0,0,1-21.429-9.1V-20.4A1.028,1.028,0,0,1-20.4-21.429,1.028,1.028,0,0,1-19.373-20.4V-9.1A1.028,1.028,0,0,1-20.4-8.071Z" transform="translate(30.676 31.704)" fill="#dbdbdb"/>
      <path id="Line_3" data-name="Line 3" d="M-20.4-8.071A1.028,1.028,0,0,1-21.429-9.1V-20.4A1.028,1.028,0,0,1-20.4-21.429,1.028,1.028,0,0,1-19.373-20.4V-9.1A1.028,1.028,0,0,1-20.4-8.071Z" transform="translate(36.842 31.704)" fill="#dbdbdb"/>
    </g>
  </g>
</svg>
