<svg xmlns="http://www.w3.org/2000/svg" width="28.939" height="28.939" viewBox="0 0 28.939 28.939">
  <g id="Interface_Home_1_White" data-name="Interface Home 1 White" transform="translate(23.001 -6)">
    <path id="Path_3" data-name="Path 3" d="M14.468,0a1.031,1.031,0,0,1,.7.274L27.943,12.056a3.109,3.109,0,0,1,.994,2.3V25.838a3.1,3.1,0,0,1-3.1,3.1H3.1a3.1,3.1,0,0,1-3.1-3.1V14.345a3.1,3.1,0,0,1,.992-2.287L13.767.274A1.031,1.031,0,0,1,14.468,0ZM25.837,26.872a1.035,1.035,0,0,0,1.034-1.034V14.345a1.04,1.04,0,0,0-.331-.772L14.468,2.439,2.394,13.575a1.034,1.034,0,0,0-.329.763v11.5A1.035,1.035,0,0,0,3.1,26.872Z" transform="translate(-23 6)" fill="#fff"/>
  </g>
</svg>
