<svg xmlns="http://www.w3.org/2000/svg" width="30.849" height="30.849" viewBox="0 0 30.849 30.849">
  <g id="Interface_Search" data-name="Interface Search" transform="translate(0 0)">
    <g id="Group_100" data-name="Group 100" transform="translate(0 0)">
      <path id="Ellipse_34" data-name="Ellipse 34" d="M-8.384-21.429A13.059,13.059,0,0,1,4.661-8.384,13.059,13.059,0,0,1-8.384,4.661,13.059,13.059,0,0,1-21.429-8.384,13.059,13.059,0,0,1-8.384-21.429Zm0,23.886A10.853,10.853,0,0,0,2.457-8.384,10.853,10.853,0,0,0-8.384-19.225,10.853,10.853,0,0,0-19.225-8.384,10.853,10.853,0,0,0-8.384,2.457Z" transform="translate(21.429 21.429)" fill="#fff"/>
      <path id="Line_1" data-name="Line 1" d="M-12.064-10.962a1.1,1.1,0,0,1-.779-.323l-8.263-8.263a1.1,1.1,0,0,1,0-1.558,1.1,1.1,0,0,1,1.558,0l8.263,8.263a1.1,1.1,0,0,1,0,1.558A1.1,1.1,0,0,1-12.064-10.962Z" transform="translate(41.811 41.811)" fill="#fff"/>
    </g>
  </g>
</svg>
