<svg xmlns="http://www.w3.org/2000/svg" width="30.876" height="30.876" viewBox="0 0 30.876 30.876">
  <g id="Interface_User_Edit_White" data-name="Interface User Edit White" transform="translate(0 0)">
    <g id="Group_39" data-name="Group 39" transform="translate(0 0)">
      <path id="Ellipse_5" data-name="Ellipse 5" d="M-15.364-21.429A6.072,6.072,0,0,1-9.3-15.364,6.072,6.072,0,0,1-15.364-9.3a6.072,6.072,0,0,1-6.065-6.065A6.072,6.072,0,0,1-15.364-21.429Zm0,9.924A3.864,3.864,0,0,0-11.5-15.364a3.864,3.864,0,0,0-3.859-3.859,3.864,3.864,0,0,0-3.859,3.859A3.864,3.864,0,0,0-15.364-11.5Z" transform="translate(26.391 21.429)" fill="#fff"/>
      <path id="Path_4" data-name="Path 4" d="M7.719,273.938H1.1a1.1,1.1,0,0,1-1.1-1.1v-3.308a11.049,11.049,0,0,1,15.925-9.811,1.1,1.1,0,1,1-.973,1.979,8.844,8.844,0,0,0-12.746,7.844v2.194H7.719a1.1,1.1,0,0,1,0,2.205Z" transform="translate(0 -245.268)" fill="#fff"/>
      <path id="Path_5" data-name="Path 5" d="M276.13,264a1.1,1.1,0,0,1,.78.323l4.058,4.058a1.1,1.1,0,0,1,0,1.559L270.58,280.328a1.1,1.1,0,0,1-.631.313l-4.7.64a1.1,1.1,0,0,1-1.241-1.246l.662-4.7a1.1,1.1,0,0,1,.311-.625l10.365-10.388a1.1,1.1,0,0,1,.78-.324Zm2.5,5.161-2.5-2.5-9.326,9.346-.407,2.89,2.885-.393Z" transform="translate(-250.414 -250.415)" fill="#fff"/>
    </g>
  </g>
</svg>
