<svg xmlns="http://www.w3.org/2000/svg" width="26.339" height="28.365" viewBox="0 0 26.339 28.365">
  <g id="Interface_Delete_Bin_2_White" data-name="Interface Delete Bin 2 White" transform="translate(-111.429 -9)">
    <g id="Group_42" data-name="Group 42" transform="translate(111.429 9)">
      <path id="Line_1" data-name="Line 1" d="M3.9-19.4H-20.416a1.013,1.013,0,0,1-1.013-1.013,1.013,1.013,0,0,1,1.013-1.013H3.9A1.013,1.013,0,0,1,4.91-20.416,1.013,1.013,0,0,1,3.9-19.4Z" transform="translate(21.429 27.507)" fill="#fff"/>
      <path id="Path_4" data-name="Path 4" d="M86.727,128.571h18.234a1.013,1.013,0,0,1,1.013,1.013v18.234a3.043,3.043,0,0,1-3.039,3.039H88.753a3.043,3.043,0,0,1-3.039-3.039V129.584A1.013,1.013,0,0,1,86.727,128.571Zm17.221,2.026H87.74v17.221a1.014,1.014,0,0,0,1.013,1.013h14.182a1.014,1.014,0,0,0,1.013-1.013Z" transform="translate(-82.675 -122.493)" fill="#fff"/>
      <path id="Path_5" data-name="Path 5" d="M182.572,8.1a1.013,1.013,0,0,1-1.013-1.013V6.078a4.052,4.052,0,1,0-8.1,0V7.091a1.013,1.013,0,0,1-2.026,0V6.078a6.078,6.078,0,1,1,12.156,0V7.091A1.013,1.013,0,0,1,182.572,8.1Z" transform="translate(-164.337 0)" fill="#fff"/>
      <path id="Line_2" data-name="Line 2" d="M-20.416-8.259a1.013,1.013,0,0,1-1.013-1.013V-20.416a1.013,1.013,0,0,1,1.013-1.013A1.013,1.013,0,0,1-19.4-20.416V-9.272A1.013,1.013,0,0,1-20.416-8.259Z" transform="translate(30.546 31.559)" fill="#fff"/>
      <path id="Line_3" data-name="Line 3" d="M-20.416-8.259a1.013,1.013,0,0,1-1.013-1.013V-20.416a1.013,1.013,0,0,1,1.013-1.013A1.013,1.013,0,0,1-19.4-20.416V-9.272A1.013,1.013,0,0,1-20.416-8.259Z" transform="translate(36.624 31.559)" fill="#fff"/>
    </g>
  </g>
</svg>
