<svg xmlns="http://www.w3.org/2000/svg" width="23.533" height="23.533" viewBox="0 0 23.533 23.533">
  <g id="Log_Out_Button" data-name="Log Out Button" transform="translate(0)">
    <g id="Group_26" data-name="Group 26" transform="translate(0)">
      <path id="Path_3" data-name="Path 3" d="M14.288,23.533H2.521A2.524,2.524,0,0,1,0,21.012V2.521A2.524,2.524,0,0,1,2.521,0H14.288a2.524,2.524,0,0,1,2.521,2.521V5.883a.84.84,0,0,1-1.681,0V2.521a.841.841,0,0,0-.84-.84H2.521a.841.841,0,0,0-.84.84v18.49a.841.841,0,0,0,.84.84H14.288a.841.841,0,0,0,.84-.84V17.65a.84.84,0,1,1,1.681,0v3.362A2.524,2.524,0,0,1,14.288,23.533Z" transform="translate(0)" fill="#cb5151"/>
      <path id="Line_1" data-name="Line 1" d="M-8.822-19.748H-20.588a.84.84,0,0,1-.84-.84.84.84,0,0,1,.84-.84H-8.822a.84.84,0,0,1,.84.84A.84.84,0,0,1-8.822-19.748Z" transform="translate(31.514 32.355)" fill="#cb5151"/>
      <path id="Path_4" data-name="Path 4" d="M472.269,201.262a.84.84,0,0,1-.594-1.435l2.768-2.768-2.768-2.768a.84.84,0,1,1,1.189-1.189l3.362,3.362a.84.84,0,0,1,0,1.189l-3.362,3.362A.838.838,0,0,1,472.269,201.262Z" transform="translate(-452.938 -185.293)" fill="#cb5151"/>
    </g>
  </g>
</svg>
