<svg xmlns="http://www.w3.org/2000/svg" width="26.768" height="26.844" viewBox="0 0 26.768 26.844">
  <g id="Mail_Sign_At_White" data-name="Mail Sign At White" transform="translate(-0.714 0)">
    <g id="Group_40" data-name="Group 40" transform="translate(0.714 0)">
      <path id="Path_4" data-name="Path 4" d="M159.012,163.08a6.554,6.554,0,1,1-.115-13.1h.115a7.006,7.006,0,0,1,4.817,1.88,6.439,6.439,0,0,1,2.052,4.67,6.728,6.728,0,0,1-6.831,6.548Zm0-11.227h-.082a4.681,4.681,0,1,0,.082,9.355v.936l.027-.936a4.806,4.806,0,0,0,4.879-4.677,4.6,4.6,0,0,0-1.466-3.336A5,5,0,0,0,159.012,151.853Z" transform="translate(-145.532 -143.113)" fill="#fff"/>
      <path id="Path_5" data-name="Path 5" d="M14.126,26.844A13.422,13.422,0,0,1,14.1,0,13.654,13.654,0,0,1,25.759,6.724c2.763,4.564,1.792,8.6-.041,10.842a5.159,5.159,0,0,1-3.776,2.092,2.851,2.851,0,0,1-.96-.161c-.6-.213-1.993-.99-1.993-3.586V13.419a.958.958,0,1,1,1.917,0v2.492c0,.458.07,1.549.719,1.78.57.2,1.677-.2,2.607-1.337.689-.845,2.716-3.964-.121-8.65A11.731,11.731,0,0,0,14.1,1.917a11.5,11.5,0,1,0,4.467,22.119.958.958,0,0,1,.737,1.77A13.442,13.442,0,0,1,14.126,26.844Z" transform="translate(-0.714 0)" fill="#fff"/>
    </g>
  </g>
</svg>
