<svg id="about-app" xmlns="http://www.w3.org/2000/svg" width="21.053" height="21.053" viewBox="0 0 21.053 21.053">
  <path id="Ellipse_44" data-name="Ellipse 44" d="M10.026-.5A10.526,10.526,0,1,1-.5,10.026,10.538,10.538,0,0,1,10.026-.5Zm0,19.549A9.023,9.023,0,1,0,1,10.026,9.033,9.033,0,0,0,10.026,19.049Z" transform="translate(0.5 0.5)"/>
  <path id="Line_1" data-name="Line 1" d="M.252,5.515A.752.752,0,0,1-.5,4.763V.252a.752.752,0,0,1,1.5,0V4.763A.752.752,0,0,1,.252,5.515Z" transform="translate(10.274 5.011)"/>
  <path id="Ellipse_45" data-name="Ellipse 45" d="M1-.5A1.5,1.5,0,1,1-.5,1,1.505,1.505,0,0,1,1-.5Z" transform="translate(9.523 13.282)"/>
</svg>
