<svg id="Group_40" data-name="Group 40" xmlns="http://www.w3.org/2000/svg" width="24.231" height="24.299" viewBox="0 0 24.231 24.299">
  <path id="Path_4" data-name="Path 4" d="M158.361,161.839a5.933,5.933,0,1,1-.1-11.856h.1a6.342,6.342,0,0,1,4.361,1.7,5.829,5.829,0,0,1,1.858,4.227,6.09,6.09,0,0,1-6.184,5.927Zm0-10.163h-.074a4.238,4.238,0,1,0,.074,8.468v.847l.025-.847a4.35,4.35,0,0,0,4.417-4.234,4.164,4.164,0,0,0-1.327-3.02A4.53,4.53,0,0,0,158.361,151.676Z" transform="translate(-146.159 -143.764)" fill="#111"/>
  <path id="Path_5" data-name="Path 5" d="M12.855,24.3A12.15,12.15,0,0,1,12.829,0,12.36,12.36,0,0,1,23.385,6.086c2.5,4.131,1.622,7.78-.037,9.814a4.67,4.67,0,0,1-3.418,1.894,2.581,2.581,0,0,1-.869-.145c-.542-.193-1.8-.9-1.8-3.246V12.147a.868.868,0,1,1,1.735,0V14.4c0,.415.063,1.4.651,1.611.516.184,1.518-.178,2.36-1.21.624-.765,2.459-3.589-.109-7.83a10.619,10.619,0,0,0-9.067-5.239,10.412,10.412,0,1,0,4.044,20.022.868.868,0,0,1,.667,1.6A12.168,12.168,0,0,1,12.855,24.3Z" transform="translate(-0.714 0)" fill="#111"/>
</svg>
