<svg xmlns="http://www.w3.org/2000/svg" width="24.231" height="13.846" viewBox="0 0 24.231 13.846">
  <g id="Interface_Login_Password_White" data-name="Interface Login Password White" transform="translate(0 -128.571)">
    <g id="Group_41" data-name="Group 41" transform="translate(0 128.571)">
      <path id="Rectangle_24" data-name="Rectangle 24" d="M-18.832-21.429H.206a2.6,2.6,0,0,1,2.6,2.6v8.654a2.6,2.6,0,0,1-2.6,2.6H-18.832a2.6,2.6,0,0,1-2.6-2.6v-8.654A2.6,2.6,0,0,1-18.832-21.429ZM.206-9.313a.866.866,0,0,0,.865-.865v-8.654A.866.866,0,0,0,.206-19.7H-18.832a.866.866,0,0,0-.865.865v8.654a.866.866,0,0,0,.865.865Z" transform="translate(21.429 21.429)" fill="#111"/>
      <path id="Ellipse_5" data-name="Ellipse 5" d="M-19.581-21.429a1.849,1.849,0,0,1,1.847,1.847,1.849,1.849,0,0,1-1.847,1.847,1.849,1.849,0,0,1-1.847-1.847A1.849,1.849,0,0,1-19.581-21.429Z" transform="translate(25.707 26.505)" fill="#111"/>
      <path id="Ellipse_6" data-name="Ellipse 6" d="M-19.581-21.429a1.849,1.849,0,0,1,1.847,1.847,1.849,1.849,0,0,1-1.847,1.847,1.849,1.849,0,0,1-1.847-1.847A1.849,1.849,0,0,1-19.581-21.429Z" transform="translate(30.841 26.505)" fill="#111"/>
      <path id="Line_1" data-name="Line 1" d="M-17.734-19.581H-20.5a.924.924,0,0,1-.924-.924.924.924,0,0,1,.924-.924h2.771a.924.924,0,0,1,.924.924A.924.924,0,0,1-17.734-19.581Z" transform="translate(36.778 29.142)" fill="#111"/>
    </g>
  </g>
</svg>
