<svg xmlns="http://www.w3.org/2000/svg" width="23.284" height="25.075" viewBox="0 0 23.284 25.075">
  <g id="Interface_Delete_Bin_2_White" data-name="Interface Delete Bin 2 White" transform="translate(-111.429 -9)">
    <g id="Group_42" data-name="Group 42" transform="translate(111.429 9)">
      <path id="Line_1" data-name="Line 1" d="M.96-19.638H-20.533a.9.9,0,0,1-.9-.9.9.9,0,0,1,.9-.9H.96a.9.9,0,0,1,.9.9A.9.9,0,0,1,.96-19.638Z" transform="translate(21.429 26.802)" fill="#111"/>
      <path id="Path_4" data-name="Path 4" d="M86.61,128.571h16.12a.9.9,0,0,1,.9.9v16.12a2.69,2.69,0,0,1-2.687,2.687H88.4a2.69,2.69,0,0,1-2.687-2.687v-16.12A.9.9,0,0,1,86.61,128.571Zm15.224,1.791H87.505v15.224a.9.9,0,0,0,.9.9h12.537a.9.9,0,0,0,.9-.9Z" transform="translate(-83.028 -123.198)" fill="#111"/>
      <path id="Path_5" data-name="Path 5" d="M181.279,7.164a.9.9,0,0,1-.9-.9v-.9a3.582,3.582,0,1,0-7.164,0v.9a.9.9,0,0,1-1.791,0v-.9a5.373,5.373,0,0,1,10.746,0v.9A.9.9,0,0,1,181.279,7.164Z" transform="translate(-165.16 0)" fill="#111"/>
      <path id="Line_2" data-name="Line 2" d="M-20.533-9.787a.9.9,0,0,1-.9-.9v-9.851a.9.9,0,0,1,.9-.9.9.9,0,0,1,.9.9v9.851A.9.9,0,0,1-20.533-9.787Z" transform="translate(29.488 30.384)" fill="#111"/>
      <path id="Line_3" data-name="Line 3" d="M-20.533-9.787a.9.9,0,0,1-.9-.9v-9.851a.9.9,0,0,1,.9-.9.9.9,0,0,1,.9.9v9.851A.9.9,0,0,1-20.533-9.787Z" transform="translate(34.862 30.384)" fill="#111"/>
    </g>
  </g>
</svg>
