<svg xmlns="http://www.w3.org/2000/svg" width="24.143" height="24.143" viewBox="0 0 24.143 24.143">
  <g id="Group_157" data-name="Group 157" transform="translate(-35.499 -175.499)">
    <g id="Interface_User_Edit_White" data-name="Interface User Edit White" transform="translate(35.499 175.499)">
      <g id="Group_39" data-name="Group 39" transform="translate(0 0)">
        <path id="Ellipse_5" data-name="Ellipse 5" d="M-16.686-21.429a4.748,4.748,0,0,1,4.742,4.742,4.748,4.748,0,0,1-4.742,4.742,4.748,4.748,0,0,1-4.742-4.742A4.748,4.748,0,0,1-16.686-21.429Zm0,7.76a3.021,3.021,0,0,0,3.018-3.018A3.021,3.021,0,0,0-16.686-19.7,3.021,3.021,0,0,0-19.7-16.686,3.021,3.021,0,0,0-16.686-13.669Z" transform="translate(25.309 21.429)" fill="#111"/>
        <path id="Path_4" data-name="Path 4" d="M6.036,270.588H.862A.862.862,0,0,1,0,269.725v-2.587a8.64,8.64,0,0,1,12.452-7.672.862.862,0,1,1-.761,1.547,6.915,6.915,0,0,0-9.966,6.133v1.715H6.036a.862.862,0,0,1,0,1.724Z" transform="translate(0 -248.17)" fill="#111"/>
        <path id="Path_5" data-name="Path 5" d="M273.484,264a.862.862,0,0,1,.61.253l3.173,3.173a.862.862,0,0,1,0,1.219l-8.122,8.122a.862.862,0,0,1-.493.245l-3.673.5a.862.862,0,0,1-.97-.975l.517-3.673a.862.862,0,0,1,.243-.489l8.1-8.122a.862.862,0,0,1,.61-.253Zm1.954,4.035-1.953-1.953-7.292,7.308-.318,2.26,2.256-.307Z" transform="translate(-253.377 -253.377)" fill="#111"/>
      </g>
    </g>
  </g>
</svg>
