<svg xmlns="http://www.w3.org/2000/svg" width="22" height="22.001" viewBox="0 0 22 22.001">
  <g id="request-new-platform" transform="translate(-0.001 0)">
    <path id="Path_36" data-name="Path 36" d="M13.82,22a2.535,2.535,0,0,1-1.8-.748L8.994,18.236,5.826,19.883a.786.786,0,0,1-1.148-.718l.137-5.108L.746,9.984a2.552,2.552,0,0,1,1-4.22L18.641.131a2.55,2.55,0,0,1,3.227,3.227l-5.627,16.9A2.552,2.552,0,0,1,13.82,22ZM9.142,16.488a.785.785,0,0,1,.555.23l3.429,3.424a.981.981,0,0,0,1.624-.383l5.627-16.9a.979.979,0,0,0-1.239-1.24L2.24,7.254a.981.981,0,0,0-.381,1.62l4.306,4.311a.786.786,0,0,1,.23.576l-.11,4.112,2.5-1.3A.784.784,0,0,1,9.142,16.488Z" transform="translate(0 0)"/>
    <path id="Path_37" data-name="Path 37" d="M3.858,14.4a.788.788,0,0,1-.5-1.393L18.4.465a.788.788,0,0,1,1.009,1.21L4.362,14.216A.784.784,0,0,1,3.858,14.4Z" transform="translate(1.713 0.162)"/>
  </g>
</svg>
