<svg xmlns="http://www.w3.org/2000/svg" width="28.939" height="28.939" viewBox="0 0 28.939 28.939">
  <g id="Interface_User_Circle" data-name="Interface User Circle" transform="translate(0 0.001)">
    <g id="Group_24" data-name="Group 24" transform="translate(0 0)">
      <circle id="Ellipse_44" data-name="Ellipse 44" cx="13" cy="13" r="13" transform="translate(1.51 1.469)" fill="#111"/>
      <path id="Ellipse_4" data-name="Ellipse 4" d="M-15.227-21.429a6.208,6.208,0,0,1,6.2,6.2,6.208,6.208,0,0,1-6.2,6.2,6.208,6.208,0,0,1-6.2-6.2A6.208,6.208,0,0,1-15.227-21.429Zm0,10.335a4.139,4.139,0,0,0,4.134-4.134,4.139,4.139,0,0,0-4.134-4.134,4.139,4.139,0,0,0-4.134,4.134A4.139,4.139,0,0,0-15.227-11.093Z" transform="translate(29.697 26.596)" fill="#fff"/>
      <path id="Path_3" data-name="Path 3" d="M114.256,392.8a1.033,1.033,0,0,1-.884-.5,9.3,9.3,0,0,0-15.887,0,1.034,1.034,0,0,1-1.765-1.075,11.369,11.369,0,0,1,19.418,0,1.034,1.034,0,0,1-.882,1.571Z" transform="translate(-90.959 -367.167)" fill="#fff"/>
      <path id="Ellipse_5" data-name="Ellipse 5" d="M-6.959-21.429A14.486,14.486,0,0,1,7.51-6.959,14.486,14.486,0,0,1-6.959,7.51,14.486,14.486,0,0,1-21.429-6.959,14.486,14.486,0,0,1-6.959-21.429Zm0,26.872a12.416,12.416,0,0,0,12.4-12.4,12.416,12.416,0,0,0-12.4-12.4,12.416,12.416,0,0,0-12.4,12.4A12.416,12.416,0,0,0-6.959,5.443Z" transform="translate(21.429 21.428)" fill="#111"/>
    </g>
  </g>
</svg>
