<svg xmlns="http://www.w3.org/2000/svg" width="28.938" height="29.47" viewBox="0 0 28.938 29.47">
  <g id="Interface_Home_1" data-name="Interface Home 1" transform="translate(23.002 -6)">
    <g id="Subtraction_4" data-name="Subtraction 4" transform="translate(-2772 6756)" fill="#fff">
      <path d="M 2759.427978515625 -6721.5302734375 L 2759.427490234375 -6721.5302734375 L 2759.427490234375 -6727.529296875 C 2759.427490234375 -6727.95166015625 2759.4931640625 -6728.35888671875 2759.614990234375 -6728.7412109375 C 2759.49365234375 -6728.359375 2759.427978515625 -6727.953125 2759.427978515625 -6727.53125 L 2759.427978515625 -6721.5302734375 Z M 2767.427978515625 -6721.53173828125 L 2767.427978515625 -6727.53125 C 2767.427978515625 -6729.736328125 2765.63330078125 -6731.5302734375 2763.42724609375 -6731.5302734375 C 2762.95458984375 -6731.5302734375 2762.501220703125 -6731.44775390625 2762.079833984375 -6731.296875 C 2762.50146484375 -6731.4482421875 2762.955810546875 -6731.53076171875 2763.428955078125 -6731.53076171875 C 2765.63427734375 -6731.53076171875 2767.428466796875 -6729.73583984375 2767.428466796875 -6727.529296875 L 2767.428466796875 -6721.53173828125 L 2767.427978515625 -6721.53173828125 Z" stroke="none"/>
      <path d="M 2760.427978515625 -6720.52978515625 L 2758.430908203125 -6720.53076171875 L 2758.428955078125 -6720.60205078125 C 2758.42822265625 -6720.64501953125 2758.427490234375 -6720.68798828125 2758.427490234375 -6720.73046875 L 2758.427490234375 -6727.529296875 C 2758.427490234375 -6730.287109375 2760.671142578125 -6732.53076171875 2763.428955078125 -6732.53076171875 C 2766.185791015625 -6732.53076171875 2768.428466796875 -6730.287109375 2768.428466796875 -6727.529296875 L 2768.428466796875 -6720.73046875 C 2768.428466796875 -6720.66455078125 2768.4267578125 -6720.59765625 2768.42333984375 -6720.53271484375 L 2766.427978515625 -6720.53076171875 L 2766.427978515625 -6727.53125 C 2766.427978515625 -6729.18505859375 2765.081787109375 -6730.5302734375 2763.42724609375 -6730.5302734375 C 2761.7734375 -6730.5302734375 2760.427978515625 -6729.18505859375 2760.427978515625 -6727.53125 L 2760.427978515625 -6720.52978515625 Z" stroke="none" fill="#111"/>
    </g>
    <path id="Path_23" data-name="Path 23" d="M70.609,721.469H85.362V722H70.609Z" transform="translate(-86.572 -686.531)" fill="#fff"/>
    <path id="Subtraction_5" data-name="Subtraction 5" d="M2767.857-6703.591h-6.329a3.1,3.1,0,0,1-3.1-3.1v-11.493a3.106,3.106,0,0,1,.993-2.288l12.775-11.783a1.029,1.029,0,0,1,.7-.274,1.026,1.026,0,0,1,.7.274l12.775,11.781a3.108,3.108,0,0,1,.993,2.3v11.486a3.1,3.1,0,0,1-3.1,3.1h-6.409v-2.066h6.409a1.035,1.035,0,0,0,1.034-1.034v-11.493a1.046,1.046,0,0,0-.331-.772l-12.071-11.133-12.074,11.135a1.031,1.031,0,0,0-.328.764v11.5a1.034,1.034,0,0,0,1.032,1.034h6.329v2.066Z" transform="translate(-2781.429 6738.531)" fill="#111"/>
  </g>
</svg>
