<svg xmlns="http://www.w3.org/2000/svg" width="28.938" height="28.939" viewBox="0 0 28.938 28.939">
  <g id="Interface_Home_1" data-name="Interface Home 1" transform="translate(23.002 -6)">
    <path id="Subtraction_3" data-name="Subtraction 3" d="M2768.858-6703.591h-7.33a3.1,3.1,0,0,1-3.1-3.1v-11.493a3.106,3.106,0,0,1,.993-2.288l12.775-11.783a1.029,1.029,0,0,1,.7-.274,1.026,1.026,0,0,1,.7.274l12.775,11.781a3.108,3.108,0,0,1,.993,2.3v11.486a3.1,3.1,0,0,1-3.1,3.1h-7.409v-6.47a4,4,0,0,0-4-4,4,4,0,0,0-4,4v6.47Z" transform="translate(-2781.429 6738.531)" fill="#111"/>
  </g>
</svg>
